<svg width="512" height="512" viewBox="0 0 512 512" fill="none" xmlns="http://www.w3.org/2000/svg">
<path fill-rule="evenodd" clip-rule="evenodd" d="M431.52 0C431.52 0 408.832 5.25824 350.65 5.25824C295.899 5.25824 277.265 15.916 255.991 32.7409V144.952C279.419 113.911 310.07 104.772 350.65 104.772C359.017 104.772 372.379 104.749 384.054 104.749C410.155 104.749 431.52 100.231 431.52 100.231V0Z" fill="#B01117"/>
<path fill-rule="evenodd" clip-rule="evenodd" d="M195.5 501.056L184.26 496.025C123.108 468.579 80.4977 407.165 80.4977 335.77L80.5202 333.407L80.4977 199.021H119.333H157.719C176.907 199.021 195.5 209.965 195.5 243.656V501.056H195.5Z" fill="#808184"/>
<path fill-rule="evenodd" clip-rule="evenodd" d="M80.4792 0C80.4792 0 103.144 5.25824 161.34 5.25824C216.108 5.25824 234.719 15.916 255.972 32.7409V144.952C232.558 113.911 201.926 104.772 161.34 104.772C152.987 104.772 139.612 104.749 127.925 104.749C101.821 104.749 80.4792 100.231 80.4792 100.231V0Z" fill="#EC1C24"/>
<path fill-rule="evenodd" clip-rule="evenodd" d="M316.51 501.056L327.758 496.025C388.899 468.579 431.521 407.165 431.521 335.77L431.493 333.407L431.521 199.021H392.676H354.304C335.102 199.021 316.51 209.965 316.51 243.656V501.056Z" fill="#808184"/>
<path d="M255.991 396.994C222.627 396.994 195.583 369.988 195.5 336.652V501.098C214.394 508.046 234.717 512 255.991 512C277.288 512 297.617 508.046 316.51 501.097V336.52C316.51 369.92 289.404 396.994 255.991 396.994Z" fill="#58595B"/>
</svg>
